<svg xmlns="http://www.w3.org/2000/svg" width="447" height="177" viewBox="0 0 447 177" fill="none">
  <path d="M26.5458 2.1478C27.4888 2.1478 28.3037 2.80655 28.5014 3.72865L46.3778 87.1328C46.4937 87.6736 46.9716 88.06 47.5247 88.06C48.1899 88.06 48.722 87.5074 48.6968 86.8427L45.5718 4.2234C45.529 3.08999 46.4362 2.1478 47.5704 2.1478H73.8222C74.9268 2.1478 75.8222 3.04323 75.8222 4.1478V171.972C75.8222 173.077 74.9268 173.972 73.8222 173.972H49.2764C48.3334 173.972 47.5185 173.313 47.3209 172.391L29.4444 88.9871C29.3285 88.4463 28.8506 88.06 28.2975 88.06C27.6323 88.06 27.1003 88.6125 27.1254 89.2772L30.2504 171.897C30.2933 173.03 29.386 173.972 28.2518 173.972H2C0.895429 173.972 0 173.077 0 171.972V4.1478C0 3.04323 0.895431 2.1478 2 2.1478H26.5458Z" fill="black"/>
  <path d="M143.315 2.1478C144.346 2.1478 145.208 2.93113 145.306 3.95716L161.38 171.824V171.972C161.38 173.077 160.485 173.972 159.38 173.972H132.879C131.844 173.972 130.98 173.183 130.887 172.152L127.533 134.984C127.44 133.953 126.576 133.164 125.541 133.164H117.065C116.03 133.164 115.166 133.953 115.073 134.984L111.719 172.152C111.626 173.183 110.762 173.972 109.727 173.972H83.2254C82.1208 173.972 81.2254 173.077 81.2254 171.972V171.824L97.2998 3.95717C97.398 2.93114 98.26 2.1478 99.2907 2.1478H143.315ZM124.984 105.242C126.152 105.242 127.072 104.246 126.978 103.082L122.473 47.2575C122.424 46.6476 121.915 46.1778 121.303 46.1778C120.691 46.1778 120.182 46.6476 120.133 47.2574L115.628 103.082C115.534 104.246 116.454 105.242 117.622 105.242H124.984Z" fill="black"/>
  <path d="M226.908 2.1478C228.012 2.1478 228.908 3.04323 228.908 4.1478V28.0693C228.908 29.1738 228.012 30.0693 226.908 30.0693H209.244C208.14 30.0693 207.244 30.9647 207.244 32.0693V171.972C207.244 173.077 206.349 173.972 205.244 173.972H176.749C175.645 173.972 174.749 173.077 174.749 171.972V32.0693C174.749 30.9647 173.854 30.0693 172.749 30.0693H155.086C153.981 30.0693 153.086 29.1738 153.086 28.0693V4.1478C153.086 3.04323 153.981 2.1478 155.086 2.1478H226.908Z" fill="black"/>
  <path d="M265.536 2.1478C266.64 2.1478 267.536 3.04323 267.536 4.1478V171.972C267.536 173.077 266.64 173.972 265.536 173.972H237.04C235.936 173.972 235.04 173.077 235.04 171.972V4.1478C235.04 3.04323 235.936 2.1478 237.04 2.1478H265.536Z" fill="black"/>
  <path d="M274.931 81.6165C274.931 52.9792 278.686 32.2171 286.196 19.3302C293.706 6.44341 304.754 0 319.341 0C333.928 0 344.976 6.44341 352.486 19.3302C359.996 32.2171 363.751 52.9792 363.751 81.6165V94.5034C363.751 123.141 359.996 143.903 352.486 156.79C344.976 169.677 333.928 176.12 319.341 176.12C304.754 176.12 293.706 169.677 286.196 156.79C278.686 143.903 274.931 123.141 274.931 94.5034V81.6165ZM310.676 138.319C310.676 141.755 311.47 144.476 313.059 146.48C314.647 148.342 316.741 149.272 319.341 149.272C321.941 149.272 324.035 148.342 325.624 146.48C327.212 144.476 328.006 141.755 328.006 138.319V36.7275C328.006 33.291 327.212 30.642 325.624 28.7806C324.035 26.776 321.941 25.7736 319.341 25.7736C316.741 25.7736 314.647 26.776 313.059 28.7806C311.47 30.642 310.676 33.291 310.676 36.7275V138.319Z" fill="black"/>
  <path d="M397.724 2.1478C398.667 2.1478 399.482 2.80655 399.679 3.72865L417.556 87.1328C417.671 87.6736 418.149 88.06 418.702 88.06C419.368 88.06 419.9 87.5074 419.875 86.8427L416.75 4.2234C416.707 3.08999 417.614 2.1478 418.748 2.1478H445C446.105 2.1478 447 3.04323 447 4.1478V171.972C447 173.077 446.105 173.972 445 173.972H420.454C419.511 173.972 418.696 173.313 418.499 172.391L400.622 88.9871C400.506 88.4463 400.028 88.06 399.475 88.06C398.81 88.06 398.278 88.6125 398.303 89.2772L401.428 171.897C401.471 173.03 400.564 173.972 399.43 173.972H373.178C372.073 173.972 371.178 173.077 371.178 171.972V4.1478C371.178 3.04323 372.073 2.1478 373.178 2.1478H397.724Z" fill="black"/>
</svg>
