<svg xmlns:inkscape="http://www.inkscape.org/namespaces/inkscape" xmlns:sodipodi="http://sodipodi.sourceforge.net/DTD/sodipodi-0.dtd" xmlns:svg="http://www.w3.org/2000/svg" xmlns="http://www.w3.org/2000/svg" xmlns:xlink="http://www.w3.org/1999/xlink" fill="black" version="1.1" id="svg2" x="0px" y="0px" width="301.13px" height="184.342px" viewBox="0 0 301.13 184.342" enable-background="new 0 0 301.13 184.342" xml:space="preserve">
	<path d="M50.596,37.292c-5.272,0-10.542,0.216-15.504,0.759C11.834,40.608,0,54.597,0,71.305c0,13.746,9.992,26.7,28.697,30.293   l22.544,4.318c8.231,1.599,12.468,3.438,12.468,7.914c0,3.437-3.198,7.037-13.827,7.037c-9.594,0-22.54-1.44-30.778-1.44   c-7.91,0-16.303,3.599-16.303,19.184c0,1.919,0.32,4.318,0.719,6.234c11.83,1.363,36.692,3.522,53.875,1.68   c23.741-2.557,35.413-15.588,35.413-33.494c0-15.426-9.513-27.978-31.574-32.053l-21.505-3.997   c-6.875-1.197-11.189-2.8-11.189-6.716c0-3.674,4.554-6.713,15.511-6.713c10.788,0,20.22,1.12,26.295,1.12   c7.914,0,16.148-3.36,16.148-18.944c0-2.078-0.243-4.001-0.638-5.995c-8.437-1.036-21.849-2.439-35.248-2.439H50.596z    M168.757,50.121l-35.97,39.33l28.933,45.564c5.357,8.312,12.394,12.545,23.826,12.545c7.509,0,13.746-1.754,16.62-3.11   l-34.85-52.523l24.703-26.218l40.527,63.631l-24.706,52.037c2.483,1.275,7.516,2.797,13.831,2.955   c10.876,0.239,16.789-3.916,21.184-13.669L301.13,40.689c-2.395-1.278-7.752-2.716-12.073-2.796   c-7.509-0.159-17.582,1.36-23.978,16.705l-18.864,44.525l-37.009-60.271c-2.398-0.722-8.238-1.757-12.475-1.757   C183.624,37.093,176.351,41.887,168.757,50.121 M102.212,19.747v127.1c2.078,0.314,4.237,0.476,6.716,0.476   c18.702,0,22.463-5.515,22.463-15.109V0.722C129.148,0.24,126.749,0,124.351,0C105.487,0,102.212,10.076,102.212,19.747"/>

</svg>
