<svg xmlns="http://www.w3.org/2000/svg" data-name="Layer 1" id="a" viewBox="0 0 555.64 101.15">
  <defs>
    <style>
      .b {
        fill: #000;
        stroke-width: 0px;
      }
    </style>
  </defs>
  <path class="b" d="m50.66,0c.19.21.36.44.56.64,16.42,16.43,32.85,32.85,49.28,49.28.2.2.44.38.86.74-.35.24-.64.37-.86.59-16.43,16.42-32.86,32.85-49.28,49.27-.2.2-.38.43-.56.64h-.16c-.12-.14-.24-.28-.36-.41C33.56,84.17,16.98,67.59.41,51.02c-.13-.13-.27-.24-.41-.36,0-.05,0-.1,0-.16.14-.12.28-.24.41-.36C16.98,33.56,33.56,16.98,50.13.41c.13-.13.24-.27.36-.41.05,0,.1,0,.16,0ZM9.64,52.2c13.11,13.11,26.12,26.12,39.2,39.2,3.08-16.08,6.16-32.16,9.26-48.32-16.21,3.05-32.31,6.08-48.46,9.12Zm54.13-9.32c-2.92,15.31-5.82,30.54-8.66,45.49,12.13-12.13,24.39-24.39,36.63-36.63-9.17-2.91-18.49-5.86-27.96-8.86Zm-14.39-33.55c-12.23,12.23-24.44,24.44-36.64,36.64,15.1-2.86,30.28-5.73,45.52-8.61-3.01-9.48-5.96-18.79-8.89-28.03Zm7.38,4.81c.1.34.16.59.24.83,2.26,7.13,4.53,14.26,6.78,21.4.18.56.45.83,1.01,1.01,7.01,2.21,14.02,4.44,21.03,6.66.37.12.74.21,1.18.34-10.1-10.11-20.13-20.13-30.24-30.24Z"/>
  <path class="b" d="m555.64,18.04c-.22.57-.46,1.14-.65,1.72-6.74,21.29-13.48,42.58-20.21,63.87-.17.53-.39.73-.97.72-2.59-.04-5.18-.04-7.76,0-.65,0-.94-.18-1.16-.81-4.42-12.8-8.86-25.59-13.31-38.38-1.29-3.72-2.59-7.44-3.88-11.16-.06-.16-.13-.32-.26-.62-.85,2.44-1.66,4.74-2.46,7.05-4.99,14.37-9.98,28.74-14.94,43.11-.22.63-.51.82-1.16.81-2.59-.04-5.18-.04-7.76,0-.57,0-.8-.18-.97-.72-5.31-16.84-10.64-33.68-15.97-50.52-1.57-4.95-3.14-9.9-4.69-14.85-.13-.4-.16-.84-.25-1.38.51,0,.87,0,1.23,0,2.59,0,5.18.03,7.76-.02.69-.01.98.18,1.18.87,5.19,17.37,10.41,34.74,15.62,52.1.07.24.15.47.29.9.73-2.07,1.4-3.96,2.06-5.85,5.3-15.14,10.6-30.29,15.88-45.44.18-.52.43-.66.95-.65,2.12.03,4.23.04,6.35,0,.64-.01.94.16,1.16.81,4.36,12.54,8.76,25.07,13.14,37.61,1.47,4.21,2.94,8.42,4.41,12.63.08.22.17.43.32.8.14-.35.24-.57.3-.79,5.19-17.32,10.39-34.64,15.56-51.96.24-.79.57-1.04,1.39-1.02,2.61.06,5.23.02,7.84.03.31,0,.62.04.94.06v1.1Z"/>
  <path class="b" d="m237.6,56.88c.34.5.64.96.94,1.41,5.64,8.33,11.28,16.65,16.91,24.98.19.28.27.62.46,1.07h-1.03c-2.9,0-5.8-.02-8.7.01-.58,0-.94-.15-1.27-.65-5.53-8.17-11.1-16.32-16.63-24.51-.52-.77-1.05-1.08-2-1.07-7.16.05-14.32.03-21.48.03h-1.04v26.14h-9.6V16.93c.3-.02.57-.04.85-.04,11.73,0,23.47-.1,35.2.03,7.82.09,14.32,3.1,18.64,9.84,6,9.34,3.71,24.36-10.09,29.7-.36.14-.72.27-1.15.43Zm-33.79-30.73v22.88c.2.02.33.04.46.04,8.39,0,16.77.02,25.16,0,1.97,0,3.89-.35,5.73-1.09,8.16-3.29,8.69-12.52,4.77-17.27-2.67-3.23-6.25-4.52-10.32-4.54-8.31-.04-16.61-.01-24.92-.01-.28,0-.57,0-.88,0Z"/>
  <path class="b" d="m450.79,50.17c-.58,14.23-6.44,24.79-18.87,31.26-5.99,3.12-12.48,4.15-19.21,3.78-6.57-.36-12.7-2.17-18.19-5.85-8.29-5.58-13.22-13.38-14.7-23.25-1.52-10.18.73-19.49,7.25-27.56,5.43-6.72,12.6-10.62,21.07-12.07,7.58-1.3,15.02-.67,22.09,2.48,10.95,4.89,17.54,13.34,19.84,25.09.42,2.14.52,4.35.72,6.1Zm-35.74-25.14c-1.97.23-3.96.33-5.9.71-7.57,1.49-13.42,5.46-17.11,12.34-2.9,5.4-3.63,11.2-2.62,17.18,1.41,8.29,5.8,14.5,13.47,18.17,5.52,2.64,11.38,3.18,17.36,2.15,7.9-1.36,14.04-5.38,17.81-12.57,3.38-6.45,3.83-13.27,1.86-20.23-1.73-6.1-5.36-10.8-10.83-14.03-4.32-2.54-9.05-3.56-14.03-3.72Z"/>
  <path class="b" d="m301.99,16.93h9.61v28h40.47v-27.99h9.57v67.34h-9.53v-29.96h-40.48v29.98c-.34.02-.59.04-.84.04-2.64,0-5.28-.03-7.92.02-.74.01-.91-.22-.91-.92.02-12.62.01-25.24.01-37.87v-27.52c0-.34,0-.68,0-1.12Z"/>
  <path class="b" d="m153.89,84.3h-9.64V26.16h-26.01v-9.21h61.57v9.2h-25.93v58.16Z"/>
  <path class="b" d="m280.42,16.94v67.33h-9.53V16.94h9.53Z"/>
</svg>
