<svg width="541" height="439" viewBox="0 0 541 439" fill="none" xmlns="http://www.w3.org/2000/svg">
  <g clip-path="url(#clip0_83_429)">
    <path
      d="M219.258 180.826L280.266 115.728L154.703 113.079L212.917 180.692L211.263 259.328L184.294 268.17L244.177 269.433L217.604 259.462L219.258 180.826Z"
      fill="#8EF4F4" />
    <path
      d="M319.474 160.897L243.06 238.218L209.691 235.868L250.281 220.817L231.594 214.525C242.66 213.871 253.726 213.217 264.789 212.565C241.924 198.568 194.077 172.782 194.077 172.782L150.35 197.892L140.295 254.574L190.336 296.195L267.613 277.479L310.089 190.548L319.474 160.897Z"
      fill="#FF4893" />
    <path
      d="M264.79 212.56C253.725 213.214 242.659 213.867 231.596 214.52L182.049 208.18L223.022 205.949C236.946 208.152 250.867 210.357 264.79 212.56Z"
      fill="#EF0078" />
    <path
      d="M250.279 220.814C249.871 219.688 235.242 223.63 206.402 232.636C196.245 233.502 186.089 234.366 175.93 235.231C187.794 236.258 199.659 237.286 211.525 238.314C237.758 227.735 250.673 221.903 250.279 220.814Z"
      fill="#EF0078" />
    <path d="M303.785 175.714L265.886 215.213L278.407 254.968L296.398 221.482L303.785 175.714Z" fill="#EF0078" />
    <path
      d="M217.353 235.95C215.175 236.649 212.999 237.348 210.821 238.047C210.65 244.795 210.478 251.54 210.305 258.287C201.175 261.154 192.047 264.021 182.917 266.888L243.605 268.5L216.732 258.459C216.94 250.957 217.145 243.454 217.353 235.952L217.353 235.95Z"
      fill="#8EF4F4" />
    <path d="M456.82 363.736L469.557 413.641L451.889 415.694L448.485 365.536L456.82 363.736Z" fill="#150359" />
    <path d="M220.168 392.198L189.797 444.362L213.935 446.276L232.708 388.827L220.168 392.198Z" fill="#150359" />
    <path d="M90.5974 356.377L60.2246 408.543L84.3644 410.454L103.136 353.008L90.5974 356.377Z" fill="#150359" />
    <path
      d="M541.103 219.601L548.375 234.513L463.947 364.226L245.649 411.365L55.3503 355.916L51.3324 338.851L242.304 395.743L455.579 357.955L541.103 219.601Z"
      fill="#FF931D" />
    <path
      d="M379.927 199.435C433.652 206.156 487.378 212.878 541.103 219.601L455.579 357.955L242.306 395.745L51.3324 338.853L316.406 307.605C337.58 271.55 358.753 235.494 379.927 199.439L379.927 199.435Z"
      fill="#FFD81A" />
    <path
      d="M359.05 84.8343L327.555 57.7249L352.133 37.901L425.409 51.7531L458.54 96.0882L447.204 124.048L409.036 121.238L359.05 84.8343Z"
      fill="#663724" />
    <path
      d="M369.038 48.2137C373.886 42.0974 378.733 35.979 383.581 29.8627C395.814 31.6318 408.05 33.4031 420.283 35.1722C428.536 42.9746 436.789 50.777 445.044 58.5774C441.507 66.4584 437.97 74.3394 434.433 82.2204L415.096 58.6862C399.743 55.1954 384.391 51.7025 369.038 48.2116L369.038 48.2137Z"
      fill="#663724" />
    <path
      d="M373.942 42.0621C375.66 39.883 377.376 37.7039 379.094 35.5249C391.243 39.1247 403.39 42.7265 415.539 46.3263C424.745 51.8847 433.953 57.443 443.16 63.0013C441.98 65.5673 440.799 68.1353 439.619 70.7013C430.401 64.5341 421.183 58.3669 411.965 52.1997C399.29 48.8197 386.615 45.4398 373.94 42.0599L373.942 42.0621Z"
      fill="#FF6A1F" />
    <path
      d="M459.31 191.94L410.109 199.222C410.109 199.222 419.403 214.659 420.052 219.402C431.578 225.911 435.106 226.472 446.634 232.982C453.609 246.816 460.584 260.65 467.556 274.484C466.15 280.095 464.744 285.704 463.335 291.315C462.618 308.052 461.904 324.792 461.187 341.529C455.501 339.775 449.812 338.024 444.126 336.27C447.323 340.221 450.517 344.172 453.714 348.123C444.471 351.477 435.227 354.834 425.984 358.189C413.84 356.622 401.696 355.058 389.552 353.492C374.007 353.023 358.46 352.552 342.915 352.083C326.555 343.599 310.194 335.114 293.833 326.63C286.506 314.996 279.352 316.889 272.025 305.255L269.844 214.006C280.899 199.048 319.145 159.122 319.145 159.122L433.383 151.694L413.209 112.702C418.108 102.072 424.924 83.4577 424.924 83.4577L474.328 151.068L459.31 191.94Z"
      fill="#FF4893" />
    <path
      d="M426.883 119.906C418.304 125.93 409.724 131.955 401.145 137.977C389.589 137.497 378.033 137.018 366.476 136.538C364.319 134.122 362.069 131.69 359.722 129.251C352.204 121.433 344.667 114.545 337.344 108.483C341.54 95.3956 345.734 82.3078 349.93 69.22C355.759 68.1604 361.588 67.1029 367.417 66.0432C364.447 60.2333 361.478 54.4233 358.509 48.6134C367.993 53.2928 377.479 57.9702 386.963 62.6497C387.1 60.1041 387.237 57.5565 387.374 55.0109C397.538 60.0138 407.702 65.0188 417.865 70.0218C420.218 74.5011 422.573 78.9784 424.926 83.4578"
      fill="#FF4893" />
    <path
      d="M353 194.599C360.896 193.668 368.795 192.735 376.692 191.803C400.556 204.449 424.417 217.097 448.281 229.745C450.293 232.59 452.303 235.433 454.316 238.278C458.73 250.346 463.144 262.416 467.558 274.484C459.826 262.081 452.092 249.675 444.36 237.272C421.212 224.798 398.065 212.323 374.918 199.848C367.613 198.098 360.307 196.349 353.002 194.599L353 194.599Z"
      fill="#EF0078" />
    <path
      d="M404.017 339.999C394.006 335.568 383.996 331.136 373.985 326.705C362.092 310.414 350.2 294.126 338.308 277.835C339.166 267.529 340.024 257.22 340.882 246.914C343.546 256.425 346.209 265.937 348.872 275.448C357.672 288.246 366.475 301.045 375.275 313.846C384.311 319.234 393.35 324.622 402.386 330.01C416.302 332.097 430.216 334.184 444.132 336.27C430.761 337.514 417.39 338.755 404.019 339.999L404.017 339.999Z"
      fill="#EF0078" />
    <path
      d="M364.009 222.005C366.474 236.687 368.94 251.368 371.405 266.049C383.828 284.16 396.252 302.27 408.677 320.381L460.579 345.125C460.783 343.926 460.987 342.729 461.191 341.529C446.237 332.848 431.283 324.167 416.329 315.486C403.511 298.172 390.69 280.857 377.871 263.542C373.251 249.695 368.629 235.85 364.009 222.003L364.009 222.005Z"
      fill="#EF0078" />
    <path
      d="M433.076 263.103C441.009 273.47 448.941 283.836 456.874 294.205C457.04 310.272 457.204 326.336 457.37 342.403C458.44 343.312 459.509 344.219 460.579 345.127C461.5 327.191 462.418 309.254 463.339 291.317C453.251 281.914 443.166 272.511 433.078 263.105L433.076 263.103Z"
      fill="#EF0078" />
    <path
      d="M46.6397 369.999L41.1281 367.373L18.7152 311.167L27.2511 307.505L41.6564 345.298L43.7918 298.069L53.0832 298.496L51.0717 342.989L67.5678 312.311L75.9612 316.305L53.9906 358.383L314.424 284.178L316.911 293.092L46.6397 369.999Z"
      fill="#150359" />
    <path d="M267.259 219.982L253.79 229.91L263.791 243.315L277.26 233.387L267.259 219.982Z" fill="#150359" />
    <path
      d="M167.959 420.975L160.394 415.589L175.931 391.423L145.357 407.771L140.944 399.626L170.74 383.693L143.064 383.382L142.534 374.149L188.228 373.457L262.223 227.308L268.708 224.829L332.622 320.281L331.367 324.024C329.703 325.057 328.037 326.09 326.373 327.121C306.681 296.76 286.988 266.398 267.294 236.037L195.644 379.734L195.036 380.397L195.152 380.605L167.957 420.973L167.959 420.975Z"
      fill="#150359" />
    <path d="M202.435 307.119L188.966 317.046L198.967 330.451L212.436 320.524L202.435 307.119Z" fill="#150359" />
    <path
      d="M417.136 84.6656C414.033 84.5877 410.929 84.514 407.824 84.4362C401.539 90.3471 395.249 96.2562 388.964 102.163C385.285 98.5102 381.602 94.8576 377.923 91.2069C376.715 90.0084 375.506 88.8079 374.298 87.6115C373.18 86.4996 372.062 85.3877 370.942 84.28L366.774 84.2616C364.459 86.4627 362.14 88.664 359.826 90.8692C359.096 91.5591 358.37 92.2529 357.64 92.9448C352.901 93.6181 348.162 94.2914 343.423 94.9646C343.112 94.5117 342.801 94.0608 342.494 93.6077C341.832 92.6437 341.173 91.6816 340.511 90.7177C339.537 89.2904 338.558 87.8655 337.578 86.4385C337.367 86.1299 337.158 85.8211 336.944 85.5104C334.092 85.6164 331.236 85.7247 328.381 85.8308C328.575 83.4656 328.771 81.0982 328.965 78.7351C334.469 78.7106 339.969 78.6863 345.473 78.6618C347.91 78.6488 350.345 78.6381 352.782 78.6293C363.04 78.5833 373.297 78.5374 383.554 78.4935C385.991 78.4805 388.427 78.4698 390.864 78.4609C399.581 78.4212 408.299 78.3813 417.016 78.3436C417.057 80.4488 417.1 82.5581 417.139 84.6676L417.136 84.6656Z"
      fill="#150359" />
    <mask id="mask0_83_429" style="mask-type:alpha" maskUnits="userSpaceOnUse" x="328" y="78" width="90" height="25">
      <path
        d="M417.136 84.6656C414.033 84.5877 410.929 84.514 407.824 84.4362C401.539 90.3471 395.249 96.2562 388.964 102.163C385.285 98.5102 381.602 94.8576 377.923 91.2069C376.715 90.0084 375.506 88.8079 374.298 87.6115C373.18 86.4996 372.062 85.3877 370.942 84.28L366.774 84.2616C364.459 86.4627 362.14 88.664 359.826 90.8692C359.096 91.5591 358.37 92.2529 357.64 92.9448C352.901 93.6181 348.162 94.2914 343.423 94.9646C343.112 94.5117 342.801 94.0608 342.494 93.6077C341.832 92.6437 341.173 91.6816 340.511 90.7177C339.537 89.2904 338.558 87.8655 337.578 86.4385C337.367 86.1299 337.158 85.8211 336.944 85.5104C334.092 85.6164 331.236 85.7247 328.381 85.8308C328.575 83.4656 328.771 81.0982 328.965 78.7351C334.469 78.7106 339.969 78.6863 345.473 78.6618C347.91 78.6488 350.345 78.6381 352.782 78.6293C363.04 78.5833 373.297 78.5374 383.554 78.4935C385.991 78.4805 388.427 78.4698 390.864 78.4609C399.581 78.4212 408.299 78.3813 417.016 78.3436C417.057 80.4488 417.1 82.5581 417.139 84.6676L417.136 84.6656Z"
        fill="#150359" />
    </mask>
    <g mask="url(#mask0_83_429)">
      <path
        d="M351.019 78.6263L321.412 107.912C320.438 106.485 319.46 105.06 318.48 103.633L343.711 78.6589C346.149 78.6459 348.584 78.6351 351.021 78.6262L351.019 78.6263Z"
        fill="#8EF4F4" />
      <path
        d="M389.098 78.4569L356.037 111.008C354.829 109.81 353.62 108.609 352.412 107.412L381.788 78.4918C384.225 78.4787 386.66 78.4679 389.098 78.459L389.098 78.4569Z"
        fill="#8EF4F4" />
    </g>
    <path d="M272.407 124.026L161.626 122.02L216.371 184.69L272.407 124.026Z" fill="#FF6A1F" />
    <path opacity="0.3" d="M228.747 158.236L214.863 148.204L204.77 162.008L218.654 172.041L228.747 158.236Z"
      fill="#FFD81A" />
    <path opacity="0.3" d="M236.472 129.88L221.452 138.141L229.759 153.073L244.78 144.813L236.472 129.88Z"
      fill="#FFD81A" />
    <path opacity="0.3" d="M207.814 135.127L190.928 132.067L187.849 148.856L204.736 151.916L207.814 135.127Z"
      fill="#FFD81A" />
    <path
      d="M245.082 136.996C228.258 147.507 206.052 142.469 195.48 125.746C184.908 109.023 189.978 86.9463 206.801 76.435L245.082 136.996Z"
      fill="#FFD81A" />
    <mask id="mask1_83_429" style="mask-type:luminance" maskUnits="userSpaceOnUse" x="195" y="71" width="68"
      height="67">
      <path
        d="M229.418 137.767C247.876 137.766 262.842 122.89 262.843 104.542C262.845 86.1931 247.883 71.3195 229.425 71.3208C210.966 71.322 196.001 86.1976 195.999 104.546C195.997 122.895 210.959 137.769 229.418 137.767Z"
        fill="white" />
    </mask>
    <g mask="url(#mask1_83_429)">
      <path d="M222.802 108.38L186.955 109.718L206.039 139.907L222.802 108.38Z" fill="#FFE98D" />
      <path d="M224.777 111.504L208.013 143.033L243.86 141.695L224.777 111.504Z" fill="#FFE98D" />
      <path d="M202.014 75.4925L185.25 107.022L221.098 105.683L202.014 75.4925Z" fill="#FFE98D" />
    </g>
    <path d="M157.234 69.001L154.006 71.1107L209.643 155.259L212.871 153.149L157.234 69.001Z" fill="#150359" />
    <path
      d="M201.992 140.185C208.24 136.101 210.566 128.648 207.187 123.537C203.808 118.426 196.004 117.594 189.755 121.677C183.507 125.761 181.18 133.215 184.559 138.325C187.938 143.436 195.743 144.269 201.992 140.185Z"
      fill="#0B9B53" />
    <path
      d="M191.235 140.044C192.332 139.327 191.964 136.844 190.413 134.498C188.862 132.151 186.715 130.831 185.618 131.548C184.521 132.265 184.889 134.748 186.44 137.094C187.991 139.44 190.138 140.761 191.235 140.044Z"
      fill="#FFD81A" />
    <path
      d="M392.762 124.975C388.79 127.095 384.82 129.212 380.85 131.331C377.248 129.715 373.603 126.589 370 124.975C367.329 125.468 372.669 124.481 370 124.975C365.298 125.846 323.5 133 323.5 133L296.5 162L291.5 106.5L318 89.4999L356 91.9999C356 91.9999 363.127 85.8798 367.049 83.807C370.375 88.317 373.7 92.8291 377.023 97.3391C381.383 101.625 385.738 105.912 390.093 110.197C390.982 115.124 391.873 120.05 392.762 124.975Z"
      fill="#FFD81A" />
    <path
      d="M314.5 132C314.5 132 311.226 129.188 310 128C319.153 124.302 328.034 119.03 337.187 115.333C344.051 116.302 350.914 117.27 357.78 118.239C365.721 116.591 373.665 114.942 381.606 113.294C380.251 111.443 378.895 109.591 377.541 107.74C380.21 109.379 382.88 111.02 385.552 112.659C385.158 115.438 384.762 118.215 384.368 120.994C383.844 119.096 383.321 117.195 382.8 115.297C374.146 117.196 365.49 119.092 356.833 120.99C350.838 120.328 344.843 119.668 338.848 119.006C330.367 122.667 314.5 132 314.5 132Z"
      fill="#150359" />
    <path
      d="M343.136 119.085C349.326 130.429 354.948 140.124 361.137 151.469C364.283 151.075 367.427 150.678 370.573 150.284C372.291 148.403 374.01 146.52 375.73 144.639C370.73 135.516 361.956 119.873 361.956 119.873L356.682 120.945C356.682 120.945 347.092 119.515 343.136 119.085Z"
      fill="#663724" />
    <path d="M354.197 97.7138L360.449 94.1883L369.098 95.7557L354.197 97.7138Z" fill="#150359" />
    <path
      d="M375.717 144.968L368.905 143.575L364.738 146.035L364.414 147.643L362.983 147.909L361.863 151.708L370.817 150.531L375.717 144.968Z"
      fill="#FFD81A" />
    <path
      d="M291.5 106.5L318 89.4998C318 89.4998 314.725 114.99 313.5 126.5L315.5 131.5L323.5 133L296.5 162L291.5 106.5Z"
      fill="#150359" />
    <path
      d="M312.47 97.5013C306.996 101.664 301.522 105.825 296.049 109.988L298.663 110.456C303.466 107.546 308.267 104.633 313.07 101.723C312.87 100.316 312.67 98.9077 312.47 97.5013Z"
      fill="#8EF4F4" />
  </g>
  <defs>
    <clipPath id="clip0_83_429">
      <rect width="541" height="439" fill="white" />
    </clipPath>
  </defs>
</svg>
